# xmcd
#
# Track frame offsets:
#	150
#	16611
#	31877
#	53351
#	79419
#	97270
#	116039
#	137334
#	154445
#	175507
#	191812
#	211062
#	228433
#	249119
#
# Disc length: 3518 seconds
#
# Revision: 0
# Processed by: cddbd v1.5.2PL0 Copyright (c) Steve Scherf et al.
# Submitted via: EasyCDDAExtractor 15.3.0.1
#
DISCID=a90dbc0e
DTITLE=Ednita Nazario - La Diva 2
DYEAR=2013
DGENRE=Latin
TTITLE0=Despues De Ti
TTITLE1=Devuelveme
TTITLE2=Cuando No Te Queden Lagrimas
TTITLE3=Mas Grande Que Grande (En Vivo) (Version Acustica)
TTITLE4=A Que No Te Vas
TTITLE5=Si No Me Amas
TTITLE6=Vengada
TTITLE7=Sin Querer
TTITLE8=Lloviendo Flores (Apasionada Tour Live Version)
TTITLE9=No Te Mentia
TTITLE10=Ni Heroes Ni Vencidos
TTITLE11=No (Featuring Natalia Jimenez)
TTITLE12=Mas Mala Que Tu
TTITLE13=Cansada De Estar Cansada
EXTD=
EXTT0=
EXTT1=
EXTT2=
EXTT3=
EXTT4=
EXTT5=
EXTT6=
EXTT7=
EXTT8=
EXTT9=
EXTT10=
EXTT11=
EXTT12=
EXTT13=
PLAYORDER=
